<?xml version='1.0' encoding='utf-8'?>
<svg xmlns="http://www.w3.org/2000/svg" xmlns:xlink="http://www.w3.org/1999/xlink" height="858.0pt" viewBox="0 0 1177.75 858.0" width="1177.75pt">
<g class="graph" id="graph0" transform="scale(1 1) rotate(0) translate(18 718)">
<title>execution</title>
<polygon fill="white" points="-18,18 -18,-718 1159.75,-718 1159.75,18 -18,18" stroke="none" />
<text font-family="sans-serif" font-size="16.00" text-anchor="middle" x="570.88" y="-680.8">eager / decode-3 · layer 0 attention</text>
<text font-family="sans-serif" font-size="16.00" text-anchor="middle" x="570.88" y="-664.3">Exact observed attribution; node distance is not elapsed time</text>
<g class="cluster" id="clust1">
<title>cluster_cpu</title>
<polygon fill="none" points="8,-218 8,-651 441,-651 441,-218 8,-218" stroke="#b9c8d7" />
<text font-family="sans-serif" font-size="16.00" text-anchor="middle" x="224.5" y="-631.8">CPU calls / replay (return does not mean NPU completion)</text>
</g>
<g class="cluster" id="clust2">
<title>cluster_runtime</title>
<polygon fill="none" points="449,-109.75 449,-527.75 710,-527.75 710,-109.75 449,-109.75" stroke="#b9c8d7" />
<text font-family="sans-serif" font-size="16.00" text-anchor="middle" x="579.5" y="-508.55">CANN / native runtime submission</text>
</g>
<g class="cluster" id="clust3">
<title>cluster_device</title>
<polygon fill="none" points="718,-8 718,-404.5 1116,-404.5 1116,-8 718,-8" stroke="#b9c8d7" />
<text font-family="sans-serif" font-size="16.00" text-anchor="middle" x="917" y="-385.3">NPU tasks / physical streams</text>
</g>

<g class="node" id="host:9942">
<title>host:9942</title>
<g id="a_host:9942"><a xlink:title="{&quot;id&quot;: &quot;host:9942&quot;, &quot;kind&quot;: &quot;host&quot;, &quot;name&quot;: &quot;_triton_rope&quot;, &quot;pid&quot;: 1025334, &quot;tid&quot;: 1025334, &quot;start_us&quot;: &quot;1790585302502344.140&quot;, &quot;end_us&quot;: &quot;1790585302502348.418&quot;, &quot;event&quot;: {&quot;ph&quot;: &quot;X&quot;, &quot;name&quot;: &quot;_triton_rope&quot;, &quot;pid&quot;: 1025334, &quot;tid&quot;: 1025334, &quot;ts&quot;: &quot;1790585302502344.140&quot;, &quot;dur&quot;: 4.278, &quot;cat&quot;: &quot;cpu_op&quot;, &quot;args&quot;: {&quot;Sequence number&quot;: -1, &quot;Fwd thread id&quot;: 0}}}">
<path d="M410.88,-618.5C410.88,-618.5 349.12,-618.5 349.12,-618.5 343.12,-618.5 337.12,-612.5 337.12,-606.5 337.12,-606.5 337.12,-594.5 337.12,-594.5 337.12,-588.5 343.12,-582.5 349.12,-582.5 349.12,-582.5 410.88,-582.5 410.88,-582.5 416.88,-582.5 422.88,-588.5 422.88,-594.5 422.88,-594.5 422.88,-606.5 422.88,-606.5 422.88,-612.5 416.88,-618.5 410.88,-618.5" fill="#eaf3ff" stroke="#6687a5" />
<text font-family="sans-serif" font-size="10.00" text-anchor="middle" x="380" y="-601.5">_triton_rope</text>
<text font-family="sans-serif" font-size="10.00" text-anchor="middle" x="380" y="-591">thread=1025334</text>
</a>
</g>
</g>

<g class="node" id="host:9960">
<title>host:9960</title>
<g id="a_host:9960"><a xlink:title="{&quot;id&quot;: &quot;host:9960&quot;, &quot;kind&quot;: &quot;host&quot;, &quot;name&quot;: &quot;ReshapeCacheOperation&quot;, &quot;pid&quot;: 1025334, &quot;tid&quot;: 1025334, &quot;start_us&quot;: &quot;1790585302503211.063&quot;, &quot;end_us&quot;: &quot;1790585302503215.442&quot;, &quot;event&quot;: {&quot;ph&quot;: &quot;X&quot;, &quot;name&quot;: &quot;ReshapeCacheOperation&quot;, &quot;pid&quot;: 1025334, &quot;tid&quot;: 1025334, &quot;ts&quot;: &quot;1790585302503211.063&quot;, &quot;dur&quot;: 4.379, &quot;cat&quot;: &quot;cpu_op&quot;, &quot;args&quot;: {&quot;Sequence number&quot;: -1, &quot;Fwd thread id&quot;: 0}}}">
<path d="M421,-495.25C421,-495.25 321,-495.25 321,-495.25 315,-495.25 309,-489.25 309,-483.25 309,-483.25 309,-471.25 309,-471.25 309,-465.25 315,-459.25 321,-459.25 321,-459.25 421,-459.25 421,-459.25 427,-459.25 433,-465.25 433,-471.25 433,-471.25 433,-483.25 433,-483.25 433,-489.25 427,-495.25 421,-495.25" fill="#eaf3ff" stroke="#6687a5" />
<text font-family="sans-serif" font-size="10.00" text-anchor="middle" x="371" y="-478.25">ReshapeCacheOperation</text>
<text font-family="sans-serif" font-size="10.00" text-anchor="middle" x="371" y="-467.75">thread=1025334</text>
</a>
</g>
</g>

<g class="edge" id="evidence-edge-11">
<title>host:9942-&gt;host:9960</title>
<g id="a_evidence-edge-11"><a xlink:title="observed call entry order only">
<path d="M378.71,-582.13C377.18,-561.51 374.62,-526.96 372.87,-503.42" fill="none" stroke="#a0aab3" stroke-dasharray="5,2" />
<polygon fill="#a0aab3" points="375.25,-503.39 372.29,-496.59 370.36,-503.75 375.25,-503.39" stroke="#a0aab3" />
</a>
</g>
<text font-family="sans-serif" font-size="8.00" text-anchor="middle" x="407.75" y="-544.65">host_issue_order</text>
</g>

<g class="node" id="submission:29899">
<title>submission:29899</title>
<g id="a_submission:29899"><a xlink:title="{&quot;id&quot;: &quot;submission:29899&quot;, &quot;kind&quot;: &quot;submission&quot;, &quot;name&quot;: &quot;Node@launch&quot;, &quot;pid&quot;: 1049942271, &quot;tid&quot;: 1025659, &quot;start_us&quot;: &quot;1790585302502353.620&quot;, &quot;end_us&quot;: &quot;1790585302502355.574&quot;, &quot;event&quot;: {&quot;name&quot;: &quot;Node@launch&quot;, &quot;pid&quot;: 1049942271, &quot;tid&quot;: 1025659, &quot;ts&quot;: &quot;1790585302502353.620&quot;, &quot;dur&quot;: 1.954, &quot;ph&quot;: &quot;X&quot;, &quot;args&quot;: {&quot;Thread Id&quot;: 1025659, &quot;Mode&quot;: &quot;launch&quot;, &quot;level&quot;: &quot;node&quot;, &quot;id&quot;: &quot;0&quot;, &quot;item_id&quot;: &quot;_triton_rope&quot;, &quot;connection_id&quot;: 8808}}}">
<path d="M594.88,-495.25C594.88,-495.25 533.12,-495.25 533.12,-495.25 527.12,-495.25 521.12,-489.25 521.12,-483.25 521.12,-483.25 521.12,-471.25 521.12,-471.25 521.12,-465.25 527.12,-459.25 533.12,-459.25 533.12,-459.25 594.88,-459.25 594.88,-459.25 600.88,-459.25 606.88,-465.25 606.88,-471.25 606.88,-471.25 606.88,-483.25 606.88,-483.25 606.88,-489.25 600.88,-495.25 594.88,-495.25" fill="#eaf3ff" stroke="#6687a5" />
<text font-family="sans-serif" font-size="10.00" text-anchor="middle" x="564" y="-478.25">Node@launch</text>
<text font-family="sans-serif" font-size="10.00" text-anchor="middle" x="564" y="-467.75">thread=1025659</text>
</a>
</g>
</g>

<g class="edge" id="evidence-edge-1">
<title>host:9942-&gt;submission:29899</title>
<g id="a_evidence-edge-1"><a xlink:title="same device task joined by exact profiler flows">
<path d="M408.7,-582.09C419.52,-575.43 431.89,-567.71 443,-560.5 473.77,-540.53 508.33,-516.91 532.62,-500.12" fill="none" stroke="#66717e" />
<polygon fill="#66717e" points="533.82,-501.58 538.18,-495.58 531.03,-497.55 533.82,-501.58" stroke="#66717e" />
</a>
</g>
<text font-family="sans-serif" font-size="8.00" text-anchor="middle" x="531.12" y="-552.9">dispatch</text>
<text font-family="sans-serif" font-size="8.00" text-anchor="middle" x="531.12" y="-544.65">flow=1790585302502368439</text>
<text font-family="sans-serif" font-size="8.00" text-anchor="middle" x="531.12" y="-536.4">queue=3046</text>
</g>

<g class="node" id="host:9972">
<title>host:9972</title>
<g id="a_host:9972"><a xlink:title="{&quot;id&quot;: &quot;host:9972&quot;, &quot;kind&quot;: &quot;host&quot;, &quot;name&quot;: &quot;aclnnFusedInferAttentionScoreV3&quot;, &quot;pid&quot;: 1025334, &quot;tid&quot;: 1025334, &quot;start_us&quot;: &quot;1790585302503674.246&quot;, &quot;end_us&quot;: &quot;1790585302503677.739&quot;, &quot;event&quot;: {&quot;ph&quot;: &quot;X&quot;, &quot;name&quot;: &quot;aclnnFusedInferAttentionScoreV3&quot;, &quot;pid&quot;: 1025334, &quot;tid&quot;: 1025334, &quot;ts&quot;: &quot;1790585302503674.246&quot;, &quot;dur&quot;: 3.493, &quot;cat&quot;: &quot;cpu_op&quot;, &quot;args&quot;: {&quot;Sequence number&quot;: -1, &quot;Fwd thread id&quot;: 0}}}">
<path d="M421.12,-370.25C421.12,-370.25 282.88,-370.25 282.88,-370.25 276.88,-370.25 270.88,-364.25 270.88,-358.25 270.88,-358.25 270.88,-346.25 270.88,-346.25 270.88,-340.25 276.88,-334.25 282.88,-334.25 282.88,-334.25 421.12,-334.25 421.12,-334.25 427.12,-334.25 433.12,-340.25 433.12,-346.25 433.12,-346.25 433.12,-358.25 433.12,-358.25 433.12,-364.25 427.12,-370.25 421.12,-370.25" fill="#eaf3ff" stroke="#6687a5" />
<text font-family="sans-serif" font-size="10.00" text-anchor="middle" x="352" y="-353.25">aclnnFusedInferAttentionScoreV3</text>
<text font-family="sans-serif" font-size="10.00" text-anchor="middle" x="352" y="-342.75">thread=1025334</text>
</a>
</g>
</g>

<g class="edge" id="evidence-edge-12">
<title>host:9960-&gt;host:9972</title>
<g id="a_evidence-edge-12"><a xlink:title="observed call entry order only">
<path d="M361.41,-458.91C358.26,-452.33 355.15,-444.64 353.5,-437.25 349.15,-417.8 349.02,-395.18 349.84,-378.32" fill="none" stroke="#a0aab3" stroke-dasharray="5,2" />
<polygon fill="#a0aab3" points="352.33,-378.68 350.3,-371.54 347.44,-378.38 352.33,-378.68" stroke="#a0aab3" />
</a>
</g>
<text font-family="sans-serif" font-size="8.00" text-anchor="middle" x="383.75" y="-421.4">host_issue_order</text>
</g>

<g class="node" id="submission:29904">
<title>submission:29904</title>
<g id="a_submission:29904"><a xlink:title="{&quot;id&quot;: &quot;submission:29904&quot;, &quot;kind&quot;: &quot;submission&quot;, &quot;name&quot;: &quot;Node@launch&quot;, &quot;pid&quot;: 1049942271, &quot;tid&quot;: 1025659, &quot;start_us&quot;: &quot;1790585302503230.457&quot;, &quot;end_us&quot;: &quot;1790585302503234.847&quot;, &quot;event&quot;: {&quot;name&quot;: &quot;Node@launch&quot;, &quot;pid&quot;: 1049942271, &quot;tid&quot;: 1025659, &quot;ts&quot;: &quot;1790585302503230.457&quot;, &quot;dur&quot;: 4.39, &quot;ph&quot;: &quot;X&quot;, &quot;args&quot;: {&quot;Thread Id&quot;: 1025659, &quot;Mode&quot;: &quot;launch&quot;, &quot;level&quot;: &quot;node&quot;, &quot;id&quot;: &quot;0&quot;, &quot;item_id&quot;: &quot;ReshapeAndCacheNdKernel&quot;, &quot;connection_id&quot;: 8813}}}">
<path d="M594.88,-370.25C594.88,-370.25 533.12,-370.25 533.12,-370.25 527.12,-370.25 521.12,-364.25 521.12,-358.25 521.12,-358.25 521.12,-346.25 521.12,-346.25 521.12,-340.25 527.12,-334.25 533.12,-334.25 533.12,-334.25 594.88,-334.25 594.88,-334.25 600.88,-334.25 606.88,-340.25 606.88,-346.25 606.88,-346.25 606.88,-358.25 606.88,-358.25 606.88,-364.25 600.88,-370.25 594.88,-370.25" fill="#eaf3ff" stroke="#6687a5" />
<text font-family="sans-serif" font-size="10.00" text-anchor="middle" x="564" y="-353.25">Node@launch</text>
<text font-family="sans-serif" font-size="10.00" text-anchor="middle" x="564" y="-342.75">thread=1025659</text>
</a>
</g>
</g>

<g class="edge" id="evidence-edge-3">
<title>host:9960-&gt;submission:29904</title>
<g id="a_evidence-edge-3"><a xlink:title="same device task joined by exact profiler flows">
<path d="M392.33,-458.85C409.11,-445.5 433.32,-426.97 455.75,-412.5 477.01,-398.79 501.69,-385.12 522.11,-374.37" fill="none" stroke="#66717e" />
<polygon fill="#66717e" points="523.07,-376.11 528.14,-370.7 520.8,-371.77 523.07,-376.11" stroke="#66717e" />
</a>
</g>
<text font-family="sans-serif" font-size="8.00" text-anchor="middle" x="507.12" y="-429.65">dispatch</text>
<text font-family="sans-serif" font-size="8.00" text-anchor="middle" x="507.12" y="-421.4">flow=1790585302503246414</text>
<text font-family="sans-serif" font-size="8.00" text-anchor="middle" x="507.12" y="-413.15">queue=3047</text>
</g>

<g class="node" id="host:9978">
<title>host:9978</title>
<g id="a_host:9978"><a xlink:title="{&quot;id&quot;: &quot;host:9978&quot;, &quot;kind&quot;: &quot;host&quot;, &quot;name&quot;: &quot;aclnnInplaceCopy&quot;, &quot;pid&quot;: 1025334, &quot;tid&quot;: 1025334, &quot;start_us&quot;: &quot;1790585302503800.164&quot;, &quot;end_us&quot;: &quot;1790585302503802.954&quot;, &quot;event&quot;: {&quot;ph&quot;: &quot;X&quot;, &quot;name&quot;: &quot;aclnnInplaceCopy&quot;, &quot;pid&quot;: 1025334, &quot;tid&quot;: 1025334, &quot;ts&quot;: &quot;1790585302503800.164&quot;, &quot;dur&quot;: 2.79, &quot;cat&quot;: &quot;cpu_op&quot;, &quot;args&quot;: {&quot;Sequence number&quot;: -1, &quot;Fwd thread id&quot;: 0}}}">
<path d="M404,-262C404,-262 334,-262 334,-262 328,-262 322,-256 322,-250 322,-250 322,-238 322,-238 322,-232 328,-226 334,-226 334,-226 404,-226 404,-226 410,-226 416,-232 416,-238 416,-238 416,-250 416,-250 416,-256 410,-262 404,-262" fill="#eaf3ff" stroke="#6687a5" />
<text font-family="sans-serif" font-size="10.00" text-anchor="middle" x="369" y="-245">aclnnInplaceCopy</text>
<text font-family="sans-serif" font-size="10.00" text-anchor="middle" x="369" y="-234.5">thread=1025334</text>
</a>
</g>
</g>

<g class="edge" id="evidence-edge-13">
<title>host:9972-&gt;host:9978</title>
<g id="a_evidence-edge-13"><a xlink:title="observed call entry order only">
<path d="M350.8,-333.84C350.27,-320.54 350.36,-301.82 353.5,-285.75 354.53,-280.46 356.19,-274.96 358.05,-269.77" fill="none" stroke="#a0aab3" stroke-dasharray="5,2" />
<polygon fill="#a0aab3" points="360.63,-270.88 360.86,-263.47 356.06,-269.12 360.63,-270.88" stroke="#a0aab3" />
</a>
</g>
<text font-family="sans-serif" font-size="8.00" text-anchor="middle" x="383.75" y="-294.65">host_issue_order</text>
</g>

<g class="node" id="submission:29909">
<title>submission:29909</title>
<g id="a_submission:29909"><a xlink:title="{&quot;id&quot;: &quot;submission:29909&quot;, &quot;kind&quot;: &quot;submission&quot;, &quot;name&quot;: &quot;Node@launch&quot;, &quot;pid&quot;: 1049942271, &quot;tid&quot;: 1025659, &quot;start_us&quot;: &quot;1790585302503685.059&quot;, &quot;end_us&quot;: &quot;1790585302503702.451&quot;, &quot;event&quot;: {&quot;name&quot;: &quot;Node@launch&quot;, &quot;pid&quot;: 1049942271, &quot;tid&quot;: 1025659, &quot;ts&quot;: &quot;1790585302503685.059&quot;, &quot;dur&quot;: 17.392, &quot;ph&quot;: &quot;X&quot;, &quot;args&quot;: {&quot;Thread Id&quot;: 1025659, &quot;Mode&quot;: &quot;launch&quot;, &quot;level&quot;: &quot;node&quot;, &quot;id&quot;: &quot;0&quot;, &quot;item_id&quot;: &quot;FusedInferAttentionScore&quot;, &quot;connection_id&quot;: 8818}}}">
<path d="M577.88,-262C577.88,-262 516.12,-262 516.12,-262 510.12,-262 504.12,-256 504.12,-250 504.12,-250 504.12,-238 504.12,-238 504.12,-232 510.12,-226 516.12,-226 516.12,-226 577.88,-226 577.88,-226 583.88,-226 589.88,-232 589.88,-238 589.88,-238 589.88,-250 589.88,-250 589.88,-256 583.88,-262 577.88,-262" fill="#eaf3ff" stroke="#6687a5" />
<text font-family="sans-serif" font-size="10.00" text-anchor="middle" x="547" y="-245">Node@launch</text>
<text font-family="sans-serif" font-size="10.00" text-anchor="middle" x="547" y="-234.5">thread=1025659</text>
</a>
</g>
</g>

<g class="edge" id="evidence-edge-5">
<title>host:9972-&gt;submission:29909</title>
<g id="a_evidence-edge-5"><a xlink:title="same device task joined by exact profiler flows">
<path d="M380.4,-333.9C391.4,-326.91 403.98,-318.6 415,-310.5 428.86,-300.31 429.97,-294.54 444.75,-285.75 460.85,-276.18 479.6,-267.96 496.62,-261.47" fill="none" stroke="#66717e" />
<polygon fill="#66717e" points="497.1,-263.53 502.8,-258.79 495.38,-258.94 497.1,-263.53" stroke="#66717e" />
</a>
</g>
<text font-family="sans-serif" font-size="8.00" text-anchor="middle" x="496.12" y="-302.9">dispatch</text>
<text font-family="sans-serif" font-size="8.00" text-anchor="middle" x="496.12" y="-294.65">flow=1790585302503718633</text>
<text font-family="sans-serif" font-size="8.00" text-anchor="middle" x="496.12" y="-286.4">queue=3048</text>
</g>

<g class="node" id="submission:29915">
<title>submission:29915</title>
<g id="a_submission:29915"><a xlink:title="{&quot;id&quot;: &quot;submission:29915&quot;, &quot;kind&quot;: &quot;submission&quot;, &quot;name&quot;: &quot;AscendCL@aclnnInplaceCopy&quot;, &quot;pid&quot;: 1049942271, &quot;tid&quot;: 1025659, &quot;start_us&quot;: &quot;1790585302503807.967&quot;, &quot;end_us&quot;: &quot;1790585302503811.413&quot;, &quot;event&quot;: {&quot;name&quot;: &quot;AscendCL@aclnnInplaceCopy&quot;, &quot;pid&quot;: 1049942271, &quot;tid&quot;: 1025659, &quot;ts&quot;: &quot;1790585302503807.967&quot;, &quot;dur&quot;: 3.446, &quot;ph&quot;: &quot;X&quot;, &quot;args&quot;: {&quot;Thread Id&quot;: 1025659, &quot;Mode&quot;: &quot;ACL_NN&quot;, &quot;level&quot;: &quot;acl&quot;, &quot;id&quot;: &quot;aclnnInplaceCopy&quot;, &quot;item_id&quot;: &quot;0&quot;, &quot;connection_id&quot;: 8824}}}">
<path d="M595.12,-153.75C595.12,-153.75 468.88,-153.75 468.88,-153.75 462.88,-153.75 456.88,-147.75 456.88,-141.75 456.88,-141.75 456.88,-129.75 456.88,-129.75 456.88,-123.75 462.88,-117.75 468.88,-117.75 468.88,-117.75 595.12,-117.75 595.12,-117.75 601.12,-117.75 607.12,-123.75 607.12,-129.75 607.12,-129.75 607.12,-141.75 607.12,-141.75 607.12,-147.75 601.12,-153.75 595.12,-153.75" fill="#eaf3ff" stroke="#6687a5" />
<text font-family="sans-serif" font-size="10.00" text-anchor="middle" x="532" y="-136.75">AscendCL@aclnnInplaceCopy</text>
<text font-family="sans-serif" font-size="10.00" text-anchor="middle" x="532" y="-126.25">thread=1025659</text>
</a>
</g>
</g>

<g class="edge" id="evidence-edge-7">
<title>host:9978-&gt;submission:29915</title>
<g id="a_evidence-edge-7"><a xlink:title="same device task joined by exact profiler flows">
<path d="M378.85,-225.75C388.01,-211.09 402.91,-190.42 420.75,-177.5 432.14,-169.26 445.37,-162.51 458.66,-157.05" fill="none" stroke="#66717e" />
<polygon fill="#66717e" points="459.42,-158.99 465.03,-154.15 457.62,-154.43 459.42,-158.99" stroke="#66717e" />
</a>
</g>
<text font-family="sans-serif" font-size="8.00" text-anchor="middle" x="472.12" y="-194.65">dispatch</text>
<text font-family="sans-serif" font-size="8.00" text-anchor="middle" x="472.12" y="-186.4">flow=1790585302503822157</text>
<text font-family="sans-serif" font-size="8.00" text-anchor="middle" x="472.12" y="-178.15">queue=3049</text>
</g>

<g class="edge" id="evidence-edge-14">
<title>submission:29899-&gt;submission:29904</title>
<g id="a_evidence-edge-14"><a xlink:title="observed call entry order only">
<path d="M564,-458.89C564,-437.92 564,-402.48 564,-378.49" fill="none" stroke="#a0aab3" stroke-dasharray="5,2" />
<polygon fill="#a0aab3" points="566.45,-378.52 564,-371.52 561.55,-378.52 566.45,-378.52" stroke="#a0aab3" />
</a>
</g>
<text font-family="sans-serif" font-size="8.00" text-anchor="middle" x="606.75" y="-421.4">submission_issue_order</text>
</g>

<g class="node" id="k:20452">
<title>k:20452</title>
<g id="a_k:20452"><a xlink:title="{&quot;id&quot;: &quot;k:20452&quot;, &quot;kind&quot;: &quot;kernel&quot;, &quot;name&quot;: &quot;_triton_rope&quot;, &quot;phase&quot;: &quot;decode-3&quot;, &quot;phase_evidence&quot;: &quot;exact_host_scope&quot;, &quot;stream&quot;: &quot;46&quot;, &quot;device_lane&quot;: &quot;1049942432&quot;, &quot;task_id&quot;: 3111, &quot;model_id&quot;: 4294967295, &quot;start_us&quot;: &quot;1790585302502368.439&quot;, &quot;end_us&quot;: &quot;1790585302502371.439&quot;, &quot;trace_index&quot;: 20452, &quot;host_operator&quot;: &quot;_triton_rope&quot;, &quot;queue&quot;: {&quot;correlation_id&quot;: &quot;3046&quot;, &quot;enqueue&quot;: {&quot;ph&quot;: &quot;X&quot;, &quot;name&quot;: &quot;Enqueue@_triton_rope&quot;, &quot;pid&quot;: 1025334, &quot;tid&quot;: 1025334, &quot;ts&quot;: &quot;1790585302502344.427&quot;, &quot;dur&quot;: 3.391, &quot;cat&quot;: &quot;enqueue&quot;, &quot;args&quot;: {&quot;correlation_id&quot;: 3046}}, &quot;dequeue&quot;: {&quot;ph&quot;: &quot;X&quot;, &quot;name&quot;: &quot;Dequeue@_triton_rope&quot;, &quot;pid&quot;: 1025334, &quot;tid&quot;: 1025659, &quot;ts&quot;: &quot;1790585302502352.828&quot;, &quot;dur&quot;: 4.166, &quot;cat&quot;: &quot;dequeue&quot;, &quot;args&quot;: {&quot;correlation_id&quot;: 3046}}}, &quot;scopes&quot;: [&quot;P13/1025334/00907/launch&quot;, &quot;P13/1025334/00906/jit_run&quot;, &quot;P13/1025334/00904/forward&quot;, &quot;P13/1025334/00892/runner&quot;], &quot;flow_evidence&quot;: {&quot;torch&quot;: {&quot;status&quot;: &quot;exact&quot;, &quot;flow_id&quot;: &quot;1790585302502368439&quot;, &quot;source_index&quot;: 9942, &quot;start_index&quot;: 35292, &quot;endpoint_index&quot;: 35293}, &quot;cann&quot;: {&quot;status&quot;: &quot;exact&quot;, &quot;flow_id&quot;: &quot;37830071943168&quot;, &quot;source_index&quot;: 29899, &quot;start_index&quot;: 32711, &quot;endpoint_index&quot;: 20453}}, &quot;kernel_csv_verified&quot;: true, &quot;raw_stream_handle&quot;: &quot;140087713468416&quot;, &quot;device_event&quot;: {&quot;name&quot;: &quot;_triton_rope&quot;, &quot;pid&quot;: 1049942432, &quot;tid&quot;: 46, &quot;ts&quot;: &quot;1790585302502368.439&quot;, &quot;dur&quot;: 3.0, &quot;ph&quot;: &quot;X&quot;, &quot;args&quot;: {&quot;Model Id&quot;: 4294967295, &quot;Task Type&quot;: &quot;AI_VECTOR_CORE&quot;, &quot;Physic Stream Id&quot;: 46, &quot;Task Id&quot;: 3111, &quot;Batch Id&quot;: 0, &quot;Subtask Id&quot;: 4294967295, &quot;connection_id&quot;: 8808}}}">
<path d="M879.62,-372C879.62,-372 792.38,-372 792.38,-372 786.38,-372 780.38,-366 780.38,-360 780.38,-360 780.38,-344.5 780.38,-344.5 780.38,-338.5 786.38,-332.5 792.38,-332.5 792.38,-332.5 879.62,-332.5 879.62,-332.5 885.62,-332.5 891.62,-338.5 891.62,-344.5 891.62,-344.5 891.62,-360 891.62,-360 891.62,-366 885.62,-372 879.62,-372" fill="#eaf3ff" stroke="#6687a5" />
<text font-family="sans-serif" font-size="10.00" text-anchor="middle" x="836" y="-358.5">_triton_rope</text>
<text font-family="sans-serif" font-size="10.00" text-anchor="middle" x="836" y="-348">stream 46 / task 3111</text>
<text font-family="sans-serif" font-size="10.00" text-anchor="middle" x="836" y="-337.5">3.000 us</text>
</a>
</g>
</g>

<g class="edge" id="evidence-edge-0">
<title>submission:29899-&gt;k:20452</title>
<g id="a_evidence-edge-0"><a xlink:title="exact runtime flow; launch return need not precede device start">
<path d="M604.86,-458.79C620.29,-452.12 637.99,-444.41 654,-437.25 699.71,-416.8 751.54,-392.8 788.17,-375.7" fill="none" stroke="#66717e" />
<polygon fill="#66717e" points="788.98,-377.56 794.28,-372.37 786.91,-373.12 788.98,-377.56" stroke="#66717e" />
</a>
</g>
<text font-family="sans-serif" font-size="8.00" text-anchor="middle" x="744.88" y="-425.52">launch</text>
<text font-family="sans-serif" font-size="8.00" text-anchor="middle" x="744.88" y="-417.27">flow=37830071943168</text>
</g>

<g class="edge" id="evidence-edge-15">
<title>submission:29904-&gt;submission:29909</title>
<g id="a_evidence-edge-15"><a xlink:title="observed call entry order only">
<path d="M561.27,-334.18C558.5,-316.86 554.18,-289.85 551.01,-270.09" fill="none" stroke="#a0aab3" stroke-dasharray="5,2" />
<polygon fill="#a0aab3" points="553.31,-269.91 549.78,-263.38 548.47,-270.68 553.31,-269.91" stroke="#a0aab3" />
</a>
</g>
<text font-family="sans-serif" font-size="8.00" text-anchor="middle" x="599.75" y="-294.65">submission_issue_order</text>
</g>

<g class="node" id="k:20454">
<title>k:20454</title>
<g id="a_k:20454"><a xlink:title="{&quot;id&quot;: &quot;k:20454&quot;, &quot;kind&quot;: &quot;kernel&quot;, &quot;name&quot;: &quot;ReshapeAndCacheNdKernel&quot;, &quot;phase&quot;: &quot;decode-3&quot;, &quot;phase_evidence&quot;: &quot;exact_host_scope&quot;, &quot;stream&quot;: &quot;46&quot;, &quot;device_lane&quot;: &quot;1049942432&quot;, &quot;task_id&quot;: 3112, &quot;model_id&quot;: 4294967295, &quot;start_us&quot;: &quot;1790585302503246.414&quot;, &quot;end_us&quot;: &quot;1790585302503248.674&quot;, &quot;trace_index&quot;: 20454, &quot;host_operator&quot;: &quot;ReshapeCacheOperation&quot;, &quot;queue&quot;: {&quot;correlation_id&quot;: &quot;3047&quot;, &quot;enqueue&quot;: {&quot;ph&quot;: &quot;X&quot;, &quot;name&quot;: &quot;Enqueue@ReshapeCacheOperation&quot;, &quot;pid&quot;: 1025334, &quot;tid&quot;: 1025334, &quot;ts&quot;: &quot;1790585302503211.397&quot;, &quot;dur&quot;: 3.876, &quot;cat&quot;: &quot;enqueue&quot;, &quot;args&quot;: {&quot;correlation_id&quot;: 3047}}, &quot;dequeue&quot;: {&quot;ph&quot;: &quot;X&quot;, &quot;name&quot;: &quot;Dequeue@ReshapeCacheOperation&quot;, &quot;pid&quot;: 1025334, &quot;tid&quot;: 1025659, &quot;ts&quot;: &quot;1790585302503220.657&quot;, &quot;dur&quot;: 20.443, &quot;cat&quot;: &quot;dequeue&quot;, &quot;args&quot;: {&quot;correlation_id&quot;: 3047}}}, &quot;scopes&quot;: [&quot;P13/1025334/00910/torch_api&quot;, &quot;P13/1025334/00909/cache_write&quot;, &quot;P13/1025334/00908/attention&quot;, &quot;P13/1025334/00904/forward&quot;, &quot;P13/1025334/00892/runner&quot;], &quot;flow_evidence&quot;: {&quot;torch&quot;: {&quot;status&quot;: &quot;exact&quot;, &quot;flow_id&quot;: &quot;1790585302503246414&quot;, &quot;source_index&quot;: 9960, &quot;start_index&quot;: 35294, &quot;endpoint_index&quot;: 35295}, &quot;cann&quot;: {&quot;status&quot;: &quot;exact&quot;, &quot;flow_id&quot;: &quot;37851546779648&quot;, &quot;source_index&quot;: 29904, &quot;start_index&quot;: 32712, &quot;endpoint_index&quot;: 20455}}, &quot;kernel_csv_verified&quot;: true, &quot;raw_stream_handle&quot;: null, &quot;device_event&quot;: {&quot;name&quot;: &quot;ReshapeAndCacheNdKernel&quot;, &quot;pid&quot;: 1049942432, &quot;tid&quot;: 46, &quot;ts&quot;: &quot;1790585302503246.414&quot;, &quot;dur&quot;: 2.26, &quot;ph&quot;: &quot;X&quot;, &quot;args&quot;: {&quot;Model Id&quot;: 4294967295, &quot;Task Type&quot;: &quot;AI_VECTOR_CORE&quot;, &quot;Physic Stream Id&quot;: 46, &quot;Task Id&quot;: 3112, &quot;Batch Id&quot;: 0, &quot;Subtask Id&quot;: 4294967295, &quot;connection_id&quot;: 8813}}}">
<path d="M863.5,-263.75C863.5,-263.75 748.5,-263.75 748.5,-263.75 742.5,-263.75 736.5,-257.75 736.5,-251.75 736.5,-251.75 736.5,-236.25 736.5,-236.25 736.5,-230.25 742.5,-224.25 748.5,-224.25 748.5,-224.25 863.5,-224.25 863.5,-224.25 869.5,-224.25 875.5,-230.25 875.5,-236.25 875.5,-236.25 875.5,-251.75 875.5,-251.75 875.5,-257.75 869.5,-263.75 863.5,-263.75" fill="#eaf3ff" stroke="#6687a5" />
<text font-family="sans-serif" font-size="10.00" text-anchor="middle" x="806" y="-250.25">ReshapeAndCacheNdKernel</text>
<text font-family="sans-serif" font-size="10.00" text-anchor="middle" x="806" y="-239.75">stream 46 / task 3112</text>
<text font-family="sans-serif" font-size="10.00" text-anchor="middle" x="806" y="-229.25">2.260 us</text>
</a>
</g>
</g>

<g class="edge" id="evidence-edge-2">
<title>submission:29904-&gt;k:20454</title>
<g id="a_evidence-edge-2"><a xlink:title="exact runtime flow; launch return need not precede device start">
<path d="M603.3,-333.81C633.16,-320.58 675.27,-301.96 712.25,-285.75 725.95,-279.74 740.8,-273.28 754.55,-267.3" fill="none" stroke="#66717e" />
<polygon fill="#66717e" points="755.18,-269.26 760.62,-264.22 753.23,-264.77 755.18,-269.26" stroke="#66717e" />
</a>
</g>
<text font-family="sans-serif" font-size="8.00" text-anchor="middle" x="752.88" y="-298.77">launch</text>
<text font-family="sans-serif" font-size="8.00" text-anchor="middle" x="752.88" y="-290.52">flow=37851546779648</text>
</g>

<g class="edge" id="evidence-edge-16">
<title>submission:29909-&gt;submission:29915</title>
<g id="a_evidence-edge-16"><a xlink:title="observed call entry order only">
<path d="M538.77,-225.55C535.86,-218.48 532.95,-210.14 531.5,-202.25 529.07,-189.04 528.99,-174.07 529.61,-161.79" fill="none" stroke="#a0aab3" stroke-dasharray="5,2" />
<polygon fill="#a0aab3" points="532.1,-162.29 530.1,-155.14 527.21,-161.97 532.1,-162.29" stroke="#a0aab3" />
</a>
</g>
<text font-family="sans-serif" font-size="8.00" text-anchor="middle" x="573.75" y="-186.4">submission_issue_order</text>
</g>

<g class="node" id="k:20456">
<title>k:20456</title>
<g id="a_k:20456"><a xlink:title="{&quot;id&quot;: &quot;k:20456&quot;, &quot;kind&quot;: &quot;kernel&quot;, &quot;name&quot;: &quot;FusedInferAttentionScore&quot;, &quot;phase&quot;: &quot;decode-3&quot;, &quot;phase_evidence&quot;: &quot;exact_host_scope&quot;, &quot;stream&quot;: &quot;46&quot;, &quot;device_lane&quot;: &quot;1049942432&quot;, &quot;task_id&quot;: 3113, &quot;model_id&quot;: 4294967295, &quot;start_us&quot;: &quot;1790585302503718.633&quot;, &quot;end_us&quot;: &quot;1790585302503741.874&quot;, &quot;trace_index&quot;: 20456, &quot;host_operator&quot;: &quot;aclnnFusedInferAttentionScoreV3&quot;, &quot;queue&quot;: {&quot;correlation_id&quot;: &quot;3048&quot;, &quot;enqueue&quot;: {&quot;ph&quot;: &quot;X&quot;, &quot;name&quot;: &quot;Enqueue@aclnnFusedInferAttentionScoreV3&quot;, &quot;pid&quot;: 1025334, &quot;tid&quot;: 1025334, &quot;ts&quot;: &quot;1790585302503674.489&quot;, &quot;dur&quot;: 3.06, &quot;cat&quot;: &quot;enqueue&quot;, &quot;args&quot;: {&quot;correlation_id&quot;: 3048}}, &quot;dequeue&quot;: {&quot;ph&quot;: &quot;X&quot;, &quot;name&quot;: &quot;Dequeue@aclnnFusedInferAttentionScoreV3&quot;, &quot;pid&quot;: 1025334, &quot;tid&quot;: 1025659, &quot;ts&quot;: &quot;1790585302503682.029&quot;, &quot;dur&quot;: 25.604, &quot;cat&quot;: &quot;dequeue&quot;, &quot;args&quot;: {&quot;correlation_id&quot;: 3048}}}, &quot;scopes&quot;: [&quot;P13/1025334/00912/torch_api&quot;, &quot;P13/1025334/00911/fia&quot;, &quot;P13/1025334/00908/attention&quot;, &quot;P13/1025334/00904/forward&quot;, &quot;P13/1025334/00892/runner&quot;], &quot;flow_evidence&quot;: {&quot;torch&quot;: {&quot;status&quot;: &quot;exact&quot;, &quot;flow_id&quot;: &quot;1790585302503718633&quot;, &quot;source_index&quot;: 9972, &quot;start_index&quot;: 35296, &quot;endpoint_index&quot;: 35297}, &quot;cann&quot;: {&quot;status&quot;: &quot;exact&quot;, &quot;flow_id&quot;: &quot;37873021616128&quot;, &quot;source_index&quot;: 29909, &quot;start_index&quot;: 32713, &quot;endpoint_index&quot;: 20457}}, &quot;kernel_csv_verified&quot;: true, &quot;raw_stream_handle&quot;: null, &quot;device_event&quot;: {&quot;name&quot;: &quot;FusedInferAttentionScore&quot;, &quot;pid&quot;: 1049942432, &quot;tid&quot;: 46, &quot;ts&quot;: &quot;1790585302503718.633&quot;, &quot;dur&quot;: 23.241, &quot;ph&quot;: &quot;X&quot;, &quot;args&quot;: {&quot;Model Id&quot;: 4294967295, &quot;Task Type&quot;: &quot;MIX_AIC&quot;, &quot;Physic Stream Id&quot;: 46, &quot;Task Id&quot;: 3113, &quot;Batch Id&quot;: 0, &quot;Subtask Id&quot;: 0, &quot;connection_id&quot;: 8818}}}">
<path d="M853.5,-155.5C853.5,-155.5 750.5,-155.5 750.5,-155.5 744.5,-155.5 738.5,-149.5 738.5,-143.5 738.5,-143.5 738.5,-128 738.5,-128 738.5,-122 744.5,-116 750.5,-116 750.5,-116 853.5,-116 853.5,-116 859.5,-116 865.5,-122 865.5,-128 865.5,-128 865.5,-143.5 865.5,-143.5 865.5,-149.5 859.5,-155.5 853.5,-155.5" fill="#eaf3ff" stroke="#6687a5" />
<text font-family="sans-serif" font-size="10.00" text-anchor="middle" x="802" y="-142">FusedInferAttentionScore</text>
<text font-family="sans-serif" font-size="10.00" text-anchor="middle" x="802" y="-131.5">stream 46 / task 3113</text>
<text font-family="sans-serif" font-size="10.00" text-anchor="middle" x="802" y="-121">23.241 us</text>
</a>
</g>
</g>

<g class="edge" id="evidence-edge-4">
<title>submission:29909-&gt;k:20456</title>
<g id="a_evidence-edge-4"><a xlink:title="exact runtime flow; launch return need not precede device start">
<path d="M577.51,-225.66C589.85,-218.53 604.18,-210.12 617,-202.25 634.25,-191.65 636.78,-185.8 655.25,-177.5 678.96,-166.84 706.11,-158.35 730.55,-151.95" fill="none" stroke="#66717e" />
<polygon fill="#66717e" points="730.87,-154.14 737.05,-150.03 729.66,-149.39 730.87,-154.14" stroke="#66717e" />
</a>
</g>
<text font-family="sans-serif" font-size="8.00" text-anchor="middle" x="695.88" y="-190.53">launch</text>
<text font-family="sans-serif" font-size="8.00" text-anchor="middle" x="695.88" y="-182.28">flow=37873021616128</text>
</g>

<g class="node" id="k:21277">
<title>k:21277</title>
<g id="a_k:21277"><a xlink:title="{&quot;id&quot;: &quot;k:21277&quot;, &quot;kind&quot;: &quot;kernel&quot;, &quot;name&quot;: &quot;MEMCPY_ASYNC&quot;, &quot;phase&quot;: &quot;decode-3&quot;, &quot;phase_evidence&quot;: &quot;exact_host_scope&quot;, &quot;stream&quot;: &quot;46&quot;, &quot;device_lane&quot;: &quot;1049942432&quot;, &quot;task_id&quot;: 3114, &quot;model_id&quot;: 4294967295, &quot;start_us&quot;: &quot;1790585302503822.157&quot;, &quot;end_us&quot;: &quot;1790585302503822.717&quot;, &quot;trace_index&quot;: 21277, &quot;host_operator&quot;: &quot;aclnnInplaceCopy&quot;, &quot;queue&quot;: {&quot;correlation_id&quot;: &quot;3049&quot;, &quot;enqueue&quot;: {&quot;ph&quot;: &quot;X&quot;, &quot;name&quot;: &quot;Enqueue@aclnnInplaceCopy&quot;, &quot;pid&quot;: 1025334, &quot;tid&quot;: 1025334, &quot;ts&quot;: &quot;1790585302503800.295&quot;, &quot;dur&quot;: 2.54, &quot;cat&quot;: &quot;enqueue&quot;, &quot;args&quot;: {&quot;correlation_id&quot;: 3049}}, &quot;dequeue&quot;: {&quot;ph&quot;: &quot;X&quot;, &quot;name&quot;: &quot;Dequeue@aclnnInplaceCopy&quot;, &quot;pid&quot;: 1025334, &quot;tid&quot;: 1025659, &quot;ts&quot;: &quot;1790585302503807.393&quot;, &quot;dur&quot;: 4.428, &quot;cat&quot;: &quot;dequeue&quot;, &quot;args&quot;: {&quot;correlation_id&quot;: 3049}}}, &quot;scopes&quot;: [&quot;P13/1025334/00911/fia&quot;, &quot;P13/1025334/00908/attention&quot;, &quot;P13/1025334/00904/forward&quot;, &quot;P13/1025334/00892/runner&quot;], &quot;flow_evidence&quot;: {&quot;torch&quot;: {&quot;status&quot;: &quot;exact&quot;, &quot;flow_id&quot;: &quot;1790585302503822157&quot;, &quot;source_index&quot;: 9978, &quot;start_index&quot;: 35298, &quot;endpoint_index&quot;: 35299}, &quot;cann&quot;: {&quot;status&quot;: &quot;exact&quot;, &quot;flow_id&quot;: &quot;37898791419904&quot;, &quot;source_index&quot;: 29915, &quot;start_index&quot;: 32714, &quot;endpoint_index&quot;: 21278}}, &quot;kernel_csv_verified&quot;: false, &quot;raw_stream_handle&quot;: null, &quot;device_event&quot;: {&quot;name&quot;: &quot;MEMCPY_ASYNC&quot;, &quot;pid&quot;: 1049942432, &quot;tid&quot;: 46, &quot;ts&quot;: &quot;1790585302503822.157&quot;, &quot;dur&quot;: 0.56, &quot;ph&quot;: &quot;X&quot;, &quot;args&quot;: {&quot;Model Id&quot;: 4294967295, &quot;Task Type&quot;: &quot;SDMA_SQE&quot;, &quot;Physic Stream Id&quot;: 46, &quot;Task Id&quot;: 3114, &quot;Batch Id&quot;: 0, &quot;Subtask Id&quot;: 4294967295, &quot;connection_id&quot;: 8824}}}">
<path d="M835.62,-55.5C835.62,-55.5 748.38,-55.5 748.38,-55.5 742.38,-55.5 736.38,-49.5 736.38,-43.5 736.38,-43.5 736.38,-28 736.38,-28 736.38,-22 742.38,-16 748.38,-16 748.38,-16 835.62,-16 835.62,-16 841.62,-16 847.62,-22 847.62,-28 847.62,-28 847.62,-43.5 847.62,-43.5 847.62,-49.5 841.62,-55.5 835.62,-55.5" fill="#eaf3ff" stroke="#6687a5" />
<text font-family="sans-serif" font-size="10.00" text-anchor="middle" x="792" y="-42">MEMCPY_ASYNC</text>
<text font-family="sans-serif" font-size="10.00" text-anchor="middle" x="792" y="-31.5">stream 46 / task 3114</text>
<text font-family="sans-serif" font-size="10.00" text-anchor="middle" x="792" y="-21">0.560 us</text>
</a>
</g>
</g>

<g class="edge" id="evidence-edge-6">
<title>submission:29915-&gt;k:21277</title>
<g id="a_evidence-edge-6"><a xlink:title="exact runtime flow; launch return need not precede device start">
<path d="M578.18,-117.34C621.68,-100.95 686.99,-76.33 733.98,-58.62" fill="none" stroke="#66717e" />
<polygon fill="#66717e" points="734.67,-60.6 740.36,-55.84 732.95,-56.01 734.67,-60.6" stroke="#66717e" />
</a>
</g>
<text font-family="sans-serif" font-size="8.00" text-anchor="middle" x="717.88" y="-86.4">launch</text>
<text font-family="sans-serif" font-size="8.00" text-anchor="middle" x="717.88" y="-78.15">flow=37898791419904</text>
</g>

<g class="edge" id="evidence-edge-8">
<title>k:20452-&gt;k:20454</title>
<g id="a_evidence-edge-8"><a xlink:title="observed consecutive tasks; not proof of tensor dependency">
<path d="M815.57,-332.32C810.09,-325.97 804.89,-318.47 802,-310.5 797.57,-298.29 797.88,-283.96 799.59,-271.82" fill="none" stroke="#607e9e" />
<polygon fill="#607e9e" points="802.13,-272.52 800.88,-265.21 797.29,-271.7 802.13,-272.52" stroke="#607e9e" />
</a>
</g>
<text font-family="sans-serif" font-size="8.00" text-anchor="middle" x="826" y="-294.65">stream_order</text>
</g>

<g class="edge" id="evidence-edge-19">
<title>k:20452-&gt;k:20454</title>
<g id="a_evidence-edge-19"><a xlink:title="source-backed scoped RoPE write/read; not cross-stream synchronization">
<path d="M846.03,-332.28C851.72,-318.86 856.52,-300.67 850,-285.75 847.42,-279.85 843.53,-274.43 839.1,-269.59" fill="none" stroke="#087d58" />
<polygon fill="#087d58" points="841.38,-268.41 834.7,-265.19 837.91,-271.87 841.38,-268.41" stroke="#087d58" />
</a>
</g>
<text font-family="sans-serif" font-size="8.00" text-anchor="middle" x="877.38" y="-294.65">data_contract</text>
</g>

<g class="edge" id="evidence-edge-20">
<title>k:20452-&gt;k:20456</title>
<g id="a_evidence-edge-20"><a xlink:title="source-backed scoped RoPE write/read; not cross-stream synchronization">
<path d="M892.03,-336.64C982.37,-310.5 1143.92,-251.48 1080,-177.5 1053.84,-147.23 947.08,-139.02 873.74,-137.03" fill="none" stroke="#087d58" />
<polygon fill="#087d58" points="873.92,-134.56 866.86,-136.83 873.8,-139.46 873.92,-134.56" stroke="#087d58" />
</a>
</g>
<text font-family="sans-serif" font-size="8.00" text-anchor="middle" x="1117.38" y="-240.53">data_contract</text>
</g>

<g class="edge" id="evidence-edge-9">
<title>k:20454-&gt;k:20456</title>
<g id="a_evidence-edge-9"><a xlink:title="observed consecutive tasks; not proof of tensor dependency">
<path d="M765.02,-223.78C756.98,-218.03 749.62,-210.9 745,-202.25 739.81,-192.55 739.97,-187.28 745,-177.5 748.23,-171.22 752.92,-165.7 758.25,-160.91" fill="none" stroke="#607e9e" />
<polygon fill="#607e9e" points="759.38,-162.33 763.24,-156 756.27,-158.54 759.38,-162.33" stroke="#607e9e" />
</a>
</g>
<text font-family="sans-serif" font-size="8.00" text-anchor="middle" x="769" y="-186.4">stream_order</text>
</g>

<g class="edge" id="evidence-edge-17">
<title>k:20454-&gt;k:20456</title>
<g id="a_evidence-edge-17"><a xlink:title="shared KV pool; exact indexed byte overlap unobserved">
<path d="M805.28,-224C804.65,-207.26 803.73,-182.68 803.02,-163.87" fill="none" stroke="#b58024" stroke-dasharray="5,2" />
<polygon fill="#b58024" points="805.43,-163.84 802.72,-156.94 800.54,-164.03 805.43,-163.84" stroke="#b58024" />
</a>
</g>
<text font-family="sans-serif" font-size="8.00" text-anchor="middle" x="868.12" y="-190.53">storage_candidate</text>
<text font-family="sans-serif" font-size="8.00" text-anchor="middle" x="868.12" y="-182.28">key pool (indexed overlap unknown)</text>
</g>

<g class="edge" id="evidence-edge-18">
<title>k:20454-&gt;k:20456</title>
<g id="a_evidence-edge-18"><a xlink:title="shared KV pool; exact indexed byte overlap unobserved">
<path d="M875.75,-232.15C916.79,-222.61 956.92,-205.72 936,-177.5 921.3,-157.67 897.19,-147.16 873.44,-141.69" fill="none" stroke="#b58024" stroke-dasharray="5,2" />
<polygon fill="#b58024" points="874.11,-139.12 866.76,-140.09 873.11,-143.92 874.11,-139.12" stroke="#b58024" />
</a>
</g>
<text font-family="sans-serif" font-size="8.00" text-anchor="middle" x="1008.5" y="-190.53">storage_candidate</text>
<text font-family="sans-serif" font-size="8.00" text-anchor="middle" x="1008.5" y="-182.28">value pool (indexed overlap unknown)</text>
</g>

<g class="edge" id="evidence-edge-10">
<title>k:20456-&gt;k:21277</title>
<g id="a_evidence-edge-10"><a xlink:title="observed consecutive tasks; not proof of tensor dependency">
<path d="M800.07,-115.85C798.56,-101.04 796.44,-80.22 794.75,-63.66" fill="none" stroke="#607e9e" />
<polygon fill="#607e9e" points="797.1,-63.64 793.96,-56.92 792.23,-64.13 797.1,-63.64" stroke="#607e9e" />
</a>
</g>
<text font-family="sans-serif" font-size="8.00" text-anchor="middle" x="821" y="-82.28">stream_order</text>
</g>
</g>
<g id="evidence-notes"><rect fill="#fff4de" height="80" rx="5" width="1157.75" x="10" y="748.0" /><text fill="#193247" font-family="sans-serif" font-size="12" x="20" y="768.0">Gray: exact call attribution / stream order. Green: scoped RAW. Amber dashed: shared KV pool, indexed overlap unknown.</text><text fill="#193247" font-family="sans-serif" font-size="12" x="20" y="788.0">Purple: exact replay/runtime connection. CPU entry order and host return do NOT establish device completion.</text><text fill="#193247" font-family="sans-serif" font-size="12" x="20" y="808.0">Every execution edge is copied from execution_graph.json; adjacent JSON retains full evidence and original edge indices.</text></g></svg>